<svg id="Layer_3" enable-background="new 0 0 64 64" height="512" viewBox="0 0 64 64" width="512" xmlns="http://www.w3.org/2000/svg"><path d="m63 11v-9c0-.552-.448-1-1-1h-60c-.552 0-1 .448-1 1v9c0 1.771.776 3.36 2 4.46v35.54h-1c-.552 0-1 .448-1 1v4c0 .552.448 1 1 1h27.08c.488 3.387 3.401 6 6.92 6h16c3.519 0 6.432-2.613 6.92-6h3.08c.552 0 1-.448 1-1v-4c0-.552-.448-1-1-1h-1v-35.54c1.224-1.1 2-2.689 2-4.46zm-2 0c0 2.206-1.794 4-4 4s-4-1.794-4-4v-8h8zm-10 0c0 2.206-1.794 4-4 4s-4-1.794-4-4v-8h8zm-38-8h8v8c0 2.206-1.794 4-4 4s-4-1.794-4-4zm10 0h8v8c0 2.206-1.794 4-4 4s-4-1.794-4-4zm10 0h8v8c0 2.206-1.794 4-4 4s-4-1.794-4-4zm-30 0h8v8c0 2.206-1.794 4-4 4s-4-1.794-4-4zm27 52h-27v-2h29c0 .732.212 1.409.556 2zm-7-4h-14v-24h14zm11 2c0-1.103.897-2 2-2 .621 0 1.066.284 1.331.521.38.343.958.343 1.338 0 .265-.237.71-.521 1.331-.521s1.066.284 1.331.521c.38.343.958.343 1.338 0 .265-.237.71-.521 1.331-.521s1.066.284 1.331.521c.38.343.958.343 1.338 0 .265-.237.71-.521 1.331-.521s1.066.284 1.331.521c.38.343.958.343 1.338 0 .265-.237.71-.521 1.331-.521 1.103 0 2 .897 2 2s-.897 2-2 2h-16c-1.103 0-2-.897-2-2zm18 8h-16c-2.415 0-4.435-1.721-4.899-4h25.799c-.465 2.279-2.485 4-4.9 4zm9-6h-3-2.556c.344-.591.556-1.268.556-2h5zm-2-4h-3.556c-.694-1.19-1.97-2-3.444-2-.705 0-1.393.19-2 .545-1.214-.71-2.786-.71-4 0-1.214-.71-2.786-.71-4 0-1.214-.71-2.786-.71-4 0-.607-.355-1.295-.545-2-.545-1.474 0-2.75.81-3.444 2h-7.556v-25c0-.552-.448-1-1-1h-16c-.552 0-1 .448-1 1v25h-2v-34.35c.627.222 1.298.35 2 .35 2.086 0 3.924-1.071 5-2.69 1.076 1.62 2.914 2.69 5 2.69s3.924-1.071 5-2.69c1.076 1.62 2.914 2.69 5 2.69s3.924-1.071 5-2.69c1.076 1.62 2.914 2.69 5 2.69s3.924-1.071 5-2.69c1.076 1.62 2.914 2.69 5 2.69s3.924-1.071 5-2.69c1.076 1.62 2.914 2.69 5 2.69.702 0 1.373-.128 2-.35z"/><path d="m56 21h-26c-.552 0-1 .448-1 1v20c0 .552.448 1 1 1h7v-2h-6v-18h24v18h-4.253v2h5.253c.552 0 1-.448 1-1v-20c0-.552-.448-1-1-1z"/><path d="m11 33h2v6h-2z"/><path d="m41.414 41c-.263-.263-.414-.628-.414-1s.151-.737.414-1l1.293-1.293-1.414-1.414-1.293 1.293c-.645.645-1 1.502-1 2.414s.355 1.77 1 2.414l.586.586c.263.263.414.628.414 1s-.151.737-.414 1l-1.293 1.293 1.414 1.414 1.293-1.293c.645-.645 1-1.502 1-2.414s-.355-1.77-1-2.414z"/><path d="m47.414 41c-.263-.263-.414-.628-.414-1s.151-.737.414-1l1.293-1.293-1.414-1.414-1.293 1.293c-.645.645-1 1.502-1 2.414s.355 1.77 1 2.414l.586.586c.263.263.414.628.414 1s-.151.737-.414 1l-1.293 1.293 1.414 1.414 1.293-1.293c.645-.645 1-1.502 1-2.414s-.355-1.77-1-2.414z"/></svg>