<?xml version="1.0" encoding="iso-8859-1"?>
<!-- Generator: Adobe Illustrator 19.0.0, SVG Export Plug-In . SVG Version: 6.00 Build 0)  -->
<svg version="1.1" id="Capa_1" xmlns="http://www.w3.org/2000/svg" xmlns:xlink="http://www.w3.org/1999/xlink" x="0px" y="0px"
	 viewBox="0 0 512 512" style="enable-background:new 0 0 512 512;" xml:space="preserve">
<g>
	<g>
		<path d="M186.569,206.88c-1.859-1.86-4.439-2.92-7.069-2.92s-5.21,1.06-7.07,2.92c-1.861,1.87-2.93,4.44-2.93,7.08
			c0,2.63,1.07,5.2,2.93,7.07c1.86,1.86,4.44,2.93,7.07,2.93s5.21-1.07,7.069-2.93c1.861-1.87,2.931-4.44,2.931-7.07
			C189.5,211.32,188.429,208.739,186.569,206.88z"/>
	</g>
</g>
<g>
	<g>
		<path d="M502,119.997c-5.522,0-10,4.477-10,10v147.958H358c-5.522,0-10,4.477-10,10v48v94.014c0,5.523,4.478,10,10,10
			c5.522,0,10-4.477,10-10v-84.014h124v84.014c0,5.523,4.478,10,10,10c5.522,0,10-4.477,10-10v-94.014v-48V129.997
			C512,124.473,507.522,119.997,502,119.997z M492,325.954H368v-28h124V325.954z"/>
	</g>
</g>
<g>
	<g>
		<path d="M154,277.954H20V129.997c0-5.523-4.478-10-10-10s-10,4.477-10,10v157.958v48v94.014c0,5.523,4.478,10,10,10
			s10-4.477,10-10v-84.014h124v84.014c0,5.523,4.478,10,10,10c5.522,0,10-4.477,10-10v-94.014v-48
			C164,282.432,159.522,277.954,154,277.954z M144,325.954H20v-28h124V325.954z"/>
	</g>
</g>
<g>
	<g>
		<path d="M378,155.955h-10v-17.643c11.639-4.128,20-15.243,20-28.28v-28c0-5.523-4.478-10-10-10h-40c-5.522,0-10,4.477-10,10v28
			c0,13.036,8.361,24.152,20,28.28v17.643h-44.027c6.292-8.363,10.027-18.753,10.027-30c0-5.523-4.478-10-10-10h-96
			c-5.522,0-10,4.477-10,10c0,11.247,3.735,21.637,10.027,30H164v-17.643c11.639-4.128,20-15.243,20-28.28v-28
			c0-5.523-4.478-10-10-10h-40c-5.522,0-10,4.477-10,10v28c0,13.036,8.361,24.152,20,28.28v17.643h-10c-18.748,0-34,15.252-34,34
			c0,18.748,15.252,34,34,34h5.5c5.522,0,10-4.477,10-10c0-5.523-4.478-10-10-10H134c-7.72,0-14-6.28-14-14c0-7.72,6.28-14,14-14
			h114h16h114c7.72,0,14,6.28,14,14c0,7.72-6.28,14-14,14H276h-40h-19.5c-5.522,0-10,4.477-10,10c0,5.523,4.478,10,10,10h9.5
			v159.621c-18.304,7.454-31.246,25.429-31.246,46.379c0,5.523,4.478,10,10,10H307.5c5.522,0,10-4.477,10-10
			c0-21.047-13.062-39.089-31.5-46.48v-159.52h92c18.748,0,34-15.252,34-34S396.748,155.955,378,155.955z M154.343,120.013
			c-0.115-0.004-0.227-0.017-0.343-0.017c-0.116,0-0.228,0.013-0.343,0.017c-5.354-0.183-9.657-4.584-9.657-9.983v-18h20v18
			C164,115.429,159.697,119.83,154.343,120.013z M264,155.955h-16c-13.037,0-24.159-8.359-28.286-20h72.572
			C288.159,147.596,277.037,155.955,264,155.955z M358.343,120.013c-0.115-0.004-0.227-0.017-0.343-0.017
			c-0.116,0-0.228,0.013-0.343,0.017c-5.354-0.183-9.657-4.584-9.657-9.983v-18h20v18C368,115.429,363.697,119.83,358.343,120.013z
			 M246,223.955h20v155.667h-20V223.955z M295.79,419.954h-79.326c4.13-11.676,15.279-20.063,28.353-20.063h22.621
			C280.511,399.891,291.66,408.278,295.79,419.954z"/>
	</g>
</g>
<g>
</g>
<g>
</g>
<g>
</g>
<g>
</g>
<g>
</g>
<g>
</g>
<g>
</g>
<g>
</g>
<g>
</g>
<g>
</g>
<g>
</g>
<g>
</g>
<g>
</g>
<g>
</g>
<g>
</g>
</svg>
